<mxfile host="app.diagrams.net" modified="2023-04-20T10:24:52.059Z" agent="Mozilla/5.0 (Macintosh; Intel Mac OS X 10_15_7) AppleWebKit/537.36 (KHTML, like Gecko) Chrome/111.0.0.0 Safari/537.36" version="21.2.1" etag="_4IjD8adcHSEBJWMPSL2" type="github">
  <diagram name="第 1 页" id="ViePy6A2R5Mw2UtJSBrc">
    <mxGraphModel>
      <root>
        <mxCell id="0" />
        <mxCell id="1" parent="0" />
      </root>
    </mxGraphModel>
  </diagram>
</mxfile>
